<svg xmlns="http://www.w3.org/2000/svg" width="1200" height="630" viewBox="0 0 1200 630" font-family="'JetBrains Mono','Courier New',monospace">
  <rect width="1200" height="630" fill="#0d1117"/>
  <g stroke="#1b2230" stroke-width="1">
    <path d="M0 40H1200M0 80H1200M0 120H1200M0 160H1200M0 200H1200M0 240H1200M0 280H1200M0 320H1200M0 360H1200M0 400H1200M0 440H1200M0 480H1200M0 520H1200M0 560H1200M0 600H1200"/>
    <path d="M40 0V630M80 0V630M120 0V630M160 0V630M200 0V630M240 0V630M280 0V630M320 0V630M360 0V630M400 0V630M440 0V630M480 0V630M520 0V630M560 0V630M600 0V630M640 0V630M680 0V630M720 0V630M760 0V630M800 0V630M840 0V630M880 0V630M920 0V630M960 0V630M1000 0V630M1040 0V630M1080 0V630M1120 0V630M1160 0V630"/>
  </g>
  <rect x="80" y="110" width="1040" height="410" fill="#161b22" stroke="#30363d" stroke-width="2"/>
  <rect x="80" y="110" width="1040" height="48" fill="#0d1117" stroke="#30363d" stroke-width="2"/>
  <text x="104" y="142" font-size="20" fill="#3fb950">$</text>
  <text x="128" y="142" font-size="20" fill="#6e7681">soro@portfolio: ~/whoami</text>
  <text x="112" y="232" font-size="22" fill="#8b949e"><tspan fill="#3fb950">$</tspan> whoami</text>
  <text x="112" y="300" font-size="64" font-weight="800" fill="#e6edf3">Soro Amidou</text>
  <text x="112" y="360" font-size="30" fill="#3fb950">Data &amp; Cloud Engineer</text>
  <text x="112" y="430" font-size="22" fill="#8b949e"><tspan fill="#3fb950">$</tspan> ls --stack</text>
  <text x="112" y="478" font-size="22" fill="#adbac7">Kafka · Airflow · Spark · Terraform · AWS · Docker · k8s</text>
</svg>
